<svg version="1.0" xmlns="http://www.w3.org/2000/svg"
 width="64.000000pt" height="64.000000pt" viewBox="0 0 64.000000 64.000000"
 preserveAspectRatio="xMidYMid meet">

<g transform="translate(0.000000,64.000000) scale(0.100000,-0.100000)"
fill="#7b68ee" stroke="none">
<path d="M300 580 c0 -5 5 -10 10 -10 6 0 10 5 10 10 0 6 -4 10 -10 10 -5 0
-10 -4 -10 -10z"/>
<path d="M340 580 c0 -5 23 -10 50 -10 28 0 50 5 50 10 0 6 -22 10 -50 10 -27
0 -50 -4 -50 -10z"/>
<path d="M460 580 c0 -5 5 -10 10 -10 6 0 10 5 10 10 0 6 -4 10 -10 10 -5 0
-10 -4 -10 -10z"/>
<path d="M162 530 c-1 -28 3 -50 9 -50 12 0 12 87 0 94 -5 3 -9 -17 -9 -44z"/>
<path d="M230 569 c0 -5 6 -9 13 -9 7 0 18 -9 24 -19 11 -18 25 -20 123 -20
99 -1 111 1 122 19 7 11 21 20 30 20 16 0 18 -12 18 -120 0 -73 4 -120 10
-120 12 0 14 229 2 246 -4 6 -22 10 -39 10 -25 -1 -33 -6 -33 -18 0 -16 -12
-18 -110 -18 -98 0 -110 2 -110 18 0 11 -8 17 -25 18 -14 1 -25 -2 -25 -7z"/>
<path d="M600 300 l0 -280 -210 0 -210 0 0 30 c0 17 -5 30 -11 30 -6 0 -9 -16
-7 -37 l3 -38 219 -3 c169 -2 221 1 228 10 12 19 10 568 -2 568 -6 0 -10 -100
-10 -280z"/>
<path d="M200 525 c0 -25 5 -45 10 -45 6 0 10 20 10 45 0 25 -4 45 -10 45 -5
0 -10 -20 -10 -45z"/>
<path d="M418 463 c7 -3 16 -2 19 1 4 3 -2 6 -13 5 -11 0 -14 -3 -6 -6z"/>
<path d="M498 394 l4 -74 -76 0 c-46 0 -76 -4 -76 -10 0 -7 30 -10 83 -8 l82
3 3 76 c2 55 -1 78 -10 82 -10 3 -12 -12 -10 -69z"/>
<path d="M276 451 c-4 -7 -5 -15 -2 -18 9 -9 19 4 14 18 -4 11 -6 11 -12 0z"/>
<path d="M230 423 c0 -5 21 -19 46 -31 l46 -23 -7 -47 c-11 -74 -34 -119 -83
-162 -24 -22 -49 -40 -54 -40 -5 0 -31 22 -58 49 -35 35 -53 63 -64 102 -25
82 -22 96 24 119 56 28 50 35 -6 7 l-46 -22 6 -49 c8 -69 48 -146 95 -184 22
-18 45 -32 51 -32 24 0 87 60 113 108 14 27 29 73 33 103 l6 54 -51 28 c-28
16 -51 24 -51 20z"/>
<path d="M154 394 c-18 -14 -18 -15 4 -4 16 8 28 8 45 0 21 -11 21 -10 3 4
-11 9 -23 16 -26 16 -3 0 -15 -7 -26 -16z"/>
<path d="M170 350 c0 -5 5 -10 10 -10 6 0 10 5 10 10 0 6 -4 10 -10 10 -5 0
-10 -4 -10 -10z"/>
<path d="M276 354 c13 -5 2 -69 -18 -108 -17 -35 -61 -76 -79 -76 -9 0 -30 15
-47 34 -27 31 -39 57 -56 121 -3 11 -4 3 -1 -17 5 -54 32 -103 71 -133 l34
-26 30 23 c41 30 62 64 76 125 12 52 10 64 -10 62 -7 0 -7 -2 0 -5z"/>
<path d="M203 295 c-26 -33 -28 -33 -47 -17 -18 16 -18 16 -7 -5 6 -13 15 -23
20 -23 7 0 33 26 60 63 25 32 2 17 -26 -18z"/>
<path d="M560 221 l0 -60 -52 -3 -53 -3 -3 -47 -3 -48 -114 0 c-82 0 -115 3
-118 13 -2 6 -8 9 -12 5 -4 -4 -5 -14 -2 -23 5 -12 28 -15 130 -15 l124 0 61
56 62 56 0 58 c0 32 -4 62 -10 65 -6 4 -10 -16 -10 -54z m-15 -89 c-6 -4 -25
-20 -42 -36 l-33 -30 0 37 c0 37 0 37 42 37 23 0 38 -3 33 -8z"/>
<path d="M340 250 c0 -5 25 -10 55 -10 30 0 55 5 55 10 0 6 -25 10 -55 10 -30
0 -55 -4 -55 -10z"/>
<path d="M470 250 c0 -5 14 -10 30 -10 17 0 30 5 30 10 0 6 -13 10 -30 10 -16
0 -30 -4 -30 -10z"/>
<path d="M170 210 c0 -5 5 -10 10 -10 6 0 10 5 10 10 0 6 -4 10 -10 10 -5 0
-10 -4 -10 -10z"/>
<path d="M310 190 c0 -5 25 -10 55 -10 30 0 55 5 55 10 0 6 -25 10 -55 10 -30
0 -55 -4 -55 -10z"/>
<path d="M440 190 c0 -5 20 -10 45 -10 25 0 45 5 45 10 0 6 -20 10 -45 10 -25
0 -45 -4 -45 -10z"/>
<path d="M260 130 c0 -6 35 -10 85 -10 50 0 85 4 85 10 0 6 -35 10 -85 10 -50
0 -85 -4 -85 -10z"/>
</g>
</svg>
