<svg version="1.0" xmlns="http://www.w3.org/2000/svg"
 width="64.000000pt" height="64.000000pt" viewBox="0 0 64.000000 64.000000"
 preserveAspectRatio="xMidYMid meet">

<g transform="translate(0.000000,64.000000) scale(0.100000,-0.100000)"
fill="#7b68ee" stroke="none">
<path d="M255 570 c-16 -7 -17 -9 -3 -9 9 -1 20 4 23 9 7 11 7 11 -20 0z"/>
<path d="M370 570 c0 -5 5 -10 10 -10 6 0 10 5 10 10 0 6 -4 10 -10 10 -5 0
-10 -4 -10 -10z"/>
<path d="M410 368 l0 -208 -114 0 c-90 0 -116 3 -126 15 -10 12 -10 19 -2 27
7 7 12 20 12 30 0 17 12 22 65 30 16 3 20 11 20 38 0 31 -3 35 -28 38 -16 2
-34 -1 -41 -7 -10 -8 -17 -6 -29 7 -13 14 -17 41 -18 115 -1 53 -5 100 -10
103 -5 3 -9 2 -8 -3 1 -4 1 -31 0 -59 -1 -43 -4 -53 -21 -57 -24 -6 -27 -39
-5 -57 19 -15 11 -70 -11 -83 -17 -10 -18 -39 -2 -55 9 -9 9 -15 0 -24 -19
-19 -14 -42 13 -68 14 -13 25 -29 25 -37 0 -32 39 -53 98 -53 46 0 63 -4 77
-20 16 -18 31 -20 132 -20 62 0 113 4 113 8 0 5 -9 17 -21 28 -35 32 -41 54
-50 168 -8 121 -14 146 -35 146 -11 0 -14 19 -14 88 0 48 -5 94 -10 102 -6 10
-10 -55 -10 -192z m-280 31 c0 -27 -2 -30 -15 -19 -8 7 -15 21 -15 31 0 11 7
19 15 19 10 0 15 -10 15 -31z m326 -51 c4 -6 9 -56 10 -111 4 -117 8 -133 42
-169 l26 -28 -112 0 c-63 0 -113 4 -117 10 -4 6 12 10 39 10 78 0 86 16 86
170 0 120 7 150 26 118z m-279 -30 c27 -25 31 -58 6 -58 -23 0 -63 39 -63 62
0 25 29 23 57 -4z m73 -18 c0 -13 -7 -20 -20 -20 -13 0 -20 7 -20 20 0 13 7
20 20 20 13 0 20 -7 20 -20z m-103 -32 c27 -25 31 -58 6 -58 -23 0 -63 39 -63
62 0 25 29 23 57 -4z m0 -80 c27 -25 31 -58 6 -58 -23 0 -63 39 -63 62 0 25
29 23 57 -4z m261 -75 l-3 -28 -123 -3 c-104 -2 -123 0 -128 13 -13 33 25 44
144 45 l113 0 -3 -27z"/>
<path d="M260 110 c0 -5 9 -10 20 -10 11 0 20 5 20 10 0 6 -9 10 -20 10 -11 0
-20 -4 -20 -10z"/>
<path d="M230 510 c0 -5 5 -10 10 -10 6 0 10 5 10 10 0 6 -4 10 -10 10 -5 0
-10 -4 -10 -10z"/>
<path d="M270 510 c0 -5 5 -10 10 -10 6 0 10 5 10 10 0 6 -4 10 -10 10 -5 0
-10 -4 -10 -10z"/>
<path d="M310 510 c0 -5 5 -10 10 -10 6 0 10 5 10 10 0 6 -4 10 -10 10 -5 0
-10 -4 -10 -10z"/>
<path d="M222 432 c-31 -3 -33 -6 -30 -35 3 -29 6 -32 38 -32 31 0 35 3 38 29
4 35 -4 42 -46 38z m28 -32 c0 -13 -7 -20 -20 -20 -13 0 -20 7 -20 20 0 13 7
20 20 20 13 0 20 -7 20 -20z"/>
<path d="M292 398 c3 -30 6 -33 38 -33 32 0 35 3 38 33 3 31 3 32 -38 32 -41
0 -41 -1 -38 -32z m58 2 c0 -13 -7 -20 -20 -20 -13 0 -20 7 -20 20 0 13 7 20
20 20 13 0 20 -7 20 -20z"/>
<path d="M292 298 c3 -30 6 -33 38 -33 32 0 35 3 38 33 3 31 3 32 -38 32 -41
0 -41 -1 -38 -32z m58 2 c0 -13 -7 -20 -20 -20 -13 0 -20 7 -20 20 0 13 7 20
20 20 13 0 20 -7 20 -20z"/>
<path d="M230 190 c0 -5 5 -10 10 -10 6 0 10 5 10 10 0 6 -4 10 -10 10 -5 0
-10 -4 -10 -10z"/>
<path d="M270 190 c0 -5 5 -10 10 -10 6 0 10 5 10 10 0 6 -4 10 -10 10 -5 0
-10 -4 -10 -10z"/>
<path d="M310 190 c0 -5 5 -10 10 -10 6 0 10 5 10 10 0 6 -4 10 -10 10 -5 0
-10 -4 -10 -10z"/>
</g>
</svg>
