<svg version="1.0" xmlns="http://www.w3.org/2000/svg"
 width="60.000000pt" height="60.000000pt" viewBox="0 0 60.000000 60.000000"
 preserveAspectRatio="xMidYMid meet">

<g transform="translate(0.000000,60.000000) scale(0.100000,-0.100000)"
fill="#7b68ee" stroke="none">
<path d="M130 496 c0 -31 5 -56 10 -56 6 0 10 22 10 49 0 28 -4 53 -10 56 -6
4 -10 -15 -10 -49z"/>
<path d="M580 288 l0 -268 -24 0 c-29 0 -46 20 -55 63 l-7 32 -172 3 -172 2 0
90 c0 53 -4 90 -10 90 -6 0 -10 -37 -10 -90 l0 -90 -39 0 c-49 0 -56 -10 -41
-56 20 -59 45 -64 303 -64 181 0 227 3 236 14 14 17 14 505 0 527 -5 8 -9 -96
-9 -253z m-87 -228 l15 -40 -208 0 c-204 0 -209 0 -224 22 -9 12 -16 30 -16
40 0 17 15 18 208 18 l209 0 16 -40z"/>
<path d="M260 530 c0 -6 40 -10 100 -10 60 0 100 4 100 10 0 6 -40 10 -100 10
-60 0 -100 -4 -100 -10z"/>
<path d="M230 490 c0 -6 50 -10 130 -10 80 0 130 4 130 10 0 6 -50 10 -130 10
-80 0 -130 -4 -130 -10z"/>
<path d="M520 446 c0 -8 -6 -17 -12 -19 -10 -4 -9 -8 2 -16 13 -10 13 -12 0
-21 -13 -9 -13 -11 0 -20 13 -9 13 -11 0 -20 -13 -9 -13 -11 0 -20 13 -9 13
-11 0 -20 -13 -9 -13 -11 0 -20 13 -9 13 -11 0 -20 -13 -9 -13 -11 0 -20 13
-9 13 -11 0 -20 -13 -9 -13 -11 0 -19 8 -6 11 -13 7 -18 -5 -4 -12 -1 -18 7
-8 13 -10 13 -19 0 -9 -13 -11 -13 -20 0 -9 13 -11 13 -20 0 -9 -13 -11 -13
-20 0 -9 13 -11 13 -20 0 -9 -13 -11 -13 -20 0 -9 13 -11 13 -20 0 -9 -13 -11
-13 -20 0 -9 13 -11 13 -20 0 -9 -13 -11 -13 -21 0 -8 11 -12 12 -16 3 -2 -7
-12 -13 -21 -13 -10 0 35 53 108 128 l125 127 -133 -130 c-72 -71 -132 -133
-132 -138 0 -4 69 -6 153 -5 l152 3 3 143 c2 92 -1 142 -8 142 -5 0 -10 -6
-10 -14z"/>
<path d="M230 408 c0 -5 18 -8 40 -8 22 0 40 -4 40 -10 0 -6 -42 -10 -105 -10
-63 0 -105 -4 -105 -10 0 -6 42 -10 105 -10 63 0 105 -4 105 -10 0 -6 -45 -10
-115 -10 l-115 0 0 30 0 29 73 4 c62 3 58 3 -30 5 -89 2 -104 0 -111 -15 -5
-10 -7 -25 -4 -33 11 -35 34 -40 177 -40 138 0 142 1 165 25 22 24 23 26 6 44
-12 13 -34 20 -72 23 -30 1 -54 0 -54 -4z m-170 -38 c0 -20 -5 -30 -15 -30
-18 0 -30 24 -21 45 10 28 36 17 36 -15z m290 15 c10 -12 10 -18 0 -30 -19
-23 -30 -18 -30 15 0 33 11 38 30 15z"/>
<path d="M423 296 c-29 -27 -53 -53 -53 -57 0 -5 23 -9 50 -9 58 0 63 6 58 71
l-3 44 -52 -49z m37 -16 c0 -27 -3 -30 -32 -30 l-32 0 29 30 c16 17 30 30 32
30 2 0 3 -13 3 -30z"/>
<path d="M170 280 c0 -5 14 -10 30 -10 17 0 30 5 30 10 0 6 -13 10 -30 10 -16
0 -30 -4 -30 -10z"/>
<path d="M170 240 c0 -5 9 -10 20 -10 11 0 20 5 20 10 0 6 -9 10 -20 10 -11 0
-20 -4 -20 -10z"/>
</g>
</svg>
