<svg version="1.0" xmlns="http://www.w3.org/2000/svg"
 width="64.000000pt" height="64.000000pt" viewBox="0 0 64.000000 64.000000"
 preserveAspectRatio="xMidYMid meet">

<g transform="translate(0.000000,64.000000) scale(0.100000,-0.100000)"
fill="#7b68ee" stroke="none">
<path d="M121 574 c0 -11 3 -14 6 -6 3 7 2 16 -1 19 -3 4 -6 -2 -5 -13z"/>
<path d="M508 371 c-2 -110 -7 -203 -11 -208 -11 -11 -343 -11 -354 0 -4 5
-10 95 -14 200 l-5 192 -2 -188 c-2 -175 -1 -188 18 -207 13 -13 33 -20 60
-20 l39 0 4 -67 3 -68 2 68 c2 51 5 67 17 67 10 0 15 -17 18 -67 l3 -68 2 68
2 67 30 0 c29 0 29 0 33 -67 l3 -68 2 68 c2 51 5 67 17 67 10 0 15 -17 18 -67
l3 -68 2 68 2 67 40 0 c27 0 47 7 60 20 19 19 20 33 20 215 0 107 -2 195 -4
195 -3 0 -6 -90 -8 -199z"/>
<path d="M174 415 c0 -82 2 -115 3 -72 2 43 2 110 0 150 -1 40 -3 5 -3 -78z"/>
<path d="M270 468 c-24 -40 -45 -76 -47 -80 -2 -5 41 -8 97 -8 l101 0 -27 48
c-37 64 -54 79 -21 18 15 -27 27 -50 27 -52 0 -2 -36 -4 -80 -4 -44 0 -80 2
-80 4 0 5 69 126 77 135 2 3 10 -4 19 -15 14 -18 15 -18 4 4 -6 12 -15 22 -19
22 -5 0 -28 -33 -51 -72z"/>
<path d="M462 458 c-1 -20 -6 -40 -12 -43 -13 -8 -13 -45 0 -45 7 0 10 -30 8
-82 l-3 -83 -130 -3 c-115 -2 -131 -1 -143 15 -13 17 -14 17 -10 -2 3 -19 12
-20 146 -23 109 -2 143 0 147 10 2 7 5 52 7 99 2 66 0 85 -9 82 -7 -3 -13 0
-13 5 0 6 6 12 13 14 8 2 10 16 6 48 -6 44 -6 44 -7 8z"/>
<path d="M308 462 c-4 -12 -2 -22 3 -22 5 0 9 -8 10 -17 0 -15 2 -15 8 2 5 11
5 22 1 25 -4 3 -9 12 -12 20 -3 10 -6 8 -10 -8z"/>
<path d="M273 333 c26 -2 68 -2 95 0 26 2 4 3 -48 3 -52 0 -74 -1 -47 -3z"/>
<path d="M273 283 c26 -2 68 -2 95 0 26 2 4 3 -48 3 -52 0 -74 -1 -47 -3z"/>
<path d="M273 243 c26 -2 68 -2 95 0 26 2 4 3 -48 3 -52 0 -74 -1 -47 -3z"/>
</g>
</svg>
