<svg version="1.0" xmlns="http://www.w3.org/2000/svg"
 width="64.000000pt" height="64.000000pt" viewBox="0 0 64.000000 64.000000"
 preserveAspectRatio="xMidYMid meet">

<g transform="translate(0.000000,64.000000) scale(0.100000,-0.100000)"
fill="#7b68ee" stroke="none">
<path d="M380 570 c0 -5 5 -10 10 -10 6 0 10 5 10 10 0 6 -4 10 -10 10 -5 0
-10 -4 -10 -10z"/>
<path d="M420 570 c0 -5 5 -10 10 -10 6 0 10 5 10 10 0 6 -4 10 -10 10 -5 0
-10 -4 -10 -10z"/>
<path d="M460 570 c0 -5 5 -10 10 -10 6 0 10 5 10 10 0 6 -4 10 -10 10 -5 0
-10 -4 -10 -10z"/>
<path d="M121 563 c1 -4 1 -20 0 -35 -1 -25 -5 -28 -35 -28 -62 0 -66 -12 -66
-194 0 -113 4 -166 12 -174 8 -8 48 -12 115 -12 96 0 103 -1 103 -20 0 -13 -7
-20 -18 -20 -21 0 -52 -29 -52 -48 0 -9 40 -12 140 -12 111 0 140 3 140 13 0
19 -33 47 -53 47 -10 0 -17 8 -17 20 0 19 7 20 103 20 67 0 107 4 115 12 8 8
12 61 12 174 0 182 -4 194 -66 194 -30 0 -34 3 -34 26 0 18 -4 25 -14 21 -8
-3 -88 -6 -178 -7 -205 -2 -200 -2 -193 9 3 5 1 13 -5 16 -6 4 -10 3 -9 -2z
m379 -164 l0 -119 -180 0 -180 0 0 120 0 119 108 3 c59 2 140 2 180 0 l72 -4
0 -119z m-380 -13 c0 -100 10 -126 51 -126 10 0 19 -4 19 -10 0 -5 -16 -10
-35 -10 -19 0 -35 -4 -35 -10 0 -5 18 -10 41 -10 32 0 42 4 46 20 4 14 14 20
34 20 22 0 29 -5 29 -20 0 -11 5 -20 10 -20 6 0 10 9 10 20 0 16 7 20 30 20
23 0 30 -4 30 -20 0 -11 5 -20 10 -20 6 0 10 9 10 20 0 29 55 29 63 0 4 -16
14 -20 46 -20 23 0 41 5 41 10 0 6 -16 10 -35 10 -19 0 -35 5 -35 10 0 6 9 10
19 10 41 0 51 26 51 126 l0 94 40 0 40 0 0 -140 0 -140 -280 0 -280 0 0 140 0
140 40 0 40 0 0 -94z m480 -226 c0 -20 -7 -20 -280 -20 -273 0 -280 0 -280 20
0 20 7 20 280 20 273 0 280 0 280 -20z m-220 -60 c0 -18 -7 -20 -60 -20 -53 0
-60 2 -60 20 0 18 7 20 60 20 53 0 60 -2 60 -20z m55 -50 c4 -6 -37 -10 -115
-10 -78 0 -119 4 -115 10 4 6 53 10 115 10 62 0 111 -4 115 -10z"/>
<path d="M316 404 c-15 -47 -26 -87 -24 -89 2 -3 17 34 32 81 15 47 26 87 24
89 -2 3 -17 -34 -32 -81z"/>
<path d="M230 425 l-24 -26 34 -32 35 -32 -30 32 -29 33 24 25 c13 14 21 25
18 25 -2 0 -15 -11 -28 -25z"/>
<path d="M400 427 l24 -27 -29 -33 -30 -32 35 32 35 33 -30 27 -29 28 24 -28z"/>
</g>
</svg>
