<svg version="1.0" xmlns="http://www.w3.org/2000/svg"
 width="64.000000pt" height="64.000000pt" viewBox="0 0 64.000000 64.000000"
 preserveAspectRatio="xMidYMid meet">

<g transform="translate(0.000000,64.000000) scale(0.100000,-0.100000)"
fill="#7b68ee" stroke="none">
<path d="M7 584 c-3 -4 -6 -136 -7 -295 l0 -289 165 0 165 0 0 25 c0 18 5 25
20 25 13 0 22 -9 26 -25 8 -33 41 -33 56 0 13 29 44 33 74 10 21 -16 80 -20
88 -6 3 4 -3 16 -14 26 -11 10 -20 24 -20 32 0 22 29 27 49 9 11 -10 21 -13
25 -7 10 15 -12 62 -39 83 -29 23 -32 44 -9 69 20 22 12 49 -14 49 -28 0 -44
24 -37 53 5 20 2 27 -14 32 -11 3 -29 1 -40 -4 -15 -8 -23 -7 -35 5 -9 8 -16
20 -16 25 0 5 -11 9 -25 9 -14 0 -25 -4 -25 -9 0 -15 -31 -42 -41 -36 -5 4 -9
53 -9 110 0 60 -4 106 -10 110 -6 4 -9 1 -8 -7 2 -10 -19 -14 -87 -16 -49 -2
-94 -8 -100 -13 -7 -7 20 -10 88 -7 l97 3 0 -42 0 -43 -95 0 c-57 0 -95 4 -95
10 0 6 -22 10 -50 10 -43 0 -50 3 -50 20 0 17 7 20 48 20 47 0 49 1 50 30 1
28 -1 30 -31 24 -41 -7 -48 -14 -14 -14 15 0 27 -4 27 -10 0 -5 -18 -10 -40
-10 -39 0 -45 6 -41 38 2 13 -2 15 -12 6z m93 -134 c0 -5 -18 -10 -40 -10 -22
0 -40 5 -40 10 0 6 18 10 40 10 22 0 40 -4 40 -10z m210 -40 c0 -27 -2 -30
-19 -20 -25 13 -68 13 -76 0 -4 -6 3 -18 15 -28 14 -11 19 -23 15 -35 -9 -21
-19 -21 -50 -1 -23 15 -25 15 -25 1 0 -27 22 -66 47 -82 26 -18 30 -47 8 -65
-26 -21 -18 -46 18 -57 29 -8 32 -12 29 -42 -3 -26 1 -34 17 -38 55 -14 8 -23
-124 -23 l-145 0 0 200 0 200 50 0 c28 0 50 5 50 10 0 6 38 10 95 10 l95 0 0
-30z m115 -29 c7 -23 44 -34 62 -19 19 15 42 3 36 -20 -7 -30 14 -62 42 -62
28 0 33 -21 10 -40 -8 -7 -15 -23 -15 -36 0 -20 -5 -24 -30 -24 -17 0 -32 6
-34 13 -16 61 -24 73 -55 89 -23 11 -40 14 -56 8 -28 -11 -47 2 -51 34 -2 20
3 27 21 32 13 3 25 14 28 25 7 24 34 25 42 0z m-127 -7 c15 -10 22 -26 22 -47
1 -29 10 -38 100 -99 61 -42 105 -65 114 -62 25 10 64 -4 77 -27 13 -26 5 -36
-16 -19 -12 10 -18 8 -35 -11 -25 -30 -25 -36 0 -51 27 -17 25 -28 -4 -28 -34
0 -66 30 -70 65 -3 25 -18 40 -98 96 -82 56 -101 65 -130 61 -29 -3 -39 1 -57
23 -28 37 -27 51 3 31 24 -15 26 -14 46 12 l22 27 -21 14 c-12 7 -21 17 -21
22 0 15 44 10 68 -7z m148 -102 c15 -10 37 -52 30 -59 -6 -6 -69 31 -86 52
-11 13 -8 15 16 15 16 0 34 -4 40 -8z m-128 -68 c5 -48 43 -78 100 -79 44 0
47 -2 50 -28 3 -22 -1 -30 -17 -34 -11 -3 -23 -14 -26 -24 -8 -25 -35 -25 -42
0 -6 23 -39 34 -65 20 -25 -14 -39 -3 -32 25 6 27 -18 56 -47 56 -23 0 -25 23
-4 40 8 7 15 23 15 37 0 21 4 24 33 21 28 -3 32 -7 35 -34z m68 -24 c24 -17
44 -33 44 -35 0 -3 -13 -5 -30 -5 -32 0 -70 30 -70 55 0 21 5 19 56 -15z"/>
<path d="M60 145 c0 -50 4 -85 10 -85 6 0 10 35 10 85 0 50 -4 85 -10 85 -6 0
-10 -35 -10 -85z"/>
<path d="M107 223 c-11 -11 -8 -163 3 -163 6 0 10 35 10 85 0 85 -1 91 -13 78z"/>
<path d="M147 223 c-11 -11 -8 -163 3 -163 6 0 10 35 10 85 0 85 -1 91 -13 78z"/>
<path d="M180 81 c0 -12 5 -21 10 -21 6 0 10 6 10 14 0 8 -4 18 -10 21 -5 3
-10 -3 -10 -14z"/>
<path d="M220 80 c0 -11 5 -20 10 -20 6 0 10 9 10 20 0 11 -4 20 -10 20 -5 0
-10 -9 -10 -20z"/>
<path d="M25 570 c-3 -5 -1 -10 4 -10 6 0 11 5 11 10 0 6 -2 10 -4 10 -3 0 -8
-4 -11 -10z"/>
</g>
</svg>
