<svg version="1.0" xmlns="http://www.w3.org/2000/svg"
 width="362.000000pt" height="84.000000pt" viewBox="0 0 362.000000 84.000000"
 preserveAspectRatio="xMidYMid meet">

<g transform="translate(0.000000,84.000000) scale(0.100000,-0.100000)"
fill="#025add" stroke="none">
<path d="M3370 700 l0 -120 120 0 120 0 0 120 0 120 -120 0 -120 0 0 -120z"/>
<path d="M2530 470 l0 -310 310 0 310 0 0 310 0 310 -310 0 -310 0 0 -310z
m200 -15 c0 -128 -1 -135 -20 -135 -19 0 -20 7 -20 135 0 128 1 135 20 135 19
0 20 -7 20 -135z m270 120 c0 -11 -12 -15 -45 -15 l-45 0 0 -120 c0 -113 -1
-120 -20 -120 -19 0 -20 7 -20 120 l0 120 -45 0 c-33 0 -45 4 -45 15 0 12 19
15 110 15 91 0 110 -3 110 -15z"/>

</g>
</svg>
